# xmcd
#
# Track frame offsets:
#	150
#	16174
#	29022
#	43670
#	53860
#	67958
#	79030
#	95876
#	107460
#	119303
#	130207
#	140770
#	153205
#	162278
#	174552
#	184657
#	200914
#	212822
#	221908
#	233519
#	243796
#
# Disc length: 3391 seconds
#
# Revision: 0
# Processed by: cddbd v1.5.1PL0 Copyright (c) Steve Scherf et al.
# Submitted via: dBpowerAMP V4.0
#
DISCID=2a0d3d15
DTITLE=Los Chistians21 grandes exitos - 21 grandes exitos
DYEAR=1900
DGENRE=balada 60s
TTITLE0=Yo ya me voy para Santa Ana
TTITLE1=Camino
TTITLE2=Toca tres veces
TTITLE3=La fiesta
TTITLE4=Los reyes magos
TTITLE5=Ahora que estoy sola
TTITLE6=Hechicera
TTITLE7=En mi mundo
TTITLE8=Yo soy para ti
TTITLE9=Pasan los dias
TTITLE10=Un carino
TTITLE11=El mar
TTITLE12=Cuando tu me besas
TTITLE13=Toda la vida
TTITLE14=Ella es una dama
TTITLE15=Jesus Bambino
TTITLE16=La fe que un dia perdi
TTITLE17=Tu recuerdo
TTITLE18=Azucar para mi dulce
TTITLE19=Dejame decirte lo que te quiero
TTITLE20=Vete lejos de mi
EXTD=
EXTT0=
EXTT1=
EXTT2=
EXTT3=
EXTT4=
EXTT5=
EXTT6=
EXTT7=
EXTT8=
EXTT9=
EXTT10=
EXTT11=
EXTT12=
EXTT13=
EXTT14=
EXTT15=
EXTT16=
EXTT17=
EXTT18=
EXTT19=
EXTT20=
PLAYORDER=
